<?xml version="1.0" encoding="utf-8"?>
<!-- Generator: Adobe Illustrator 24.0.0, SVG Export Plug-In . SVG Version: 6.00 Build 0)  -->
<svg version="1.1" id="outline" xmlns="http://www.w3.org/2000/svg" xmlns:xlink="http://www.w3.org/1999/xlink" x="0px" y="0px"
	 viewBox="0 0 340 340" style="enable-background:new 0 0 340 340;" xml:space="preserve">
<g style="fill:#27c2a0;fill-opacity:1">>
	<path d="M318.9,48H90.3c-1.9,0-3.5,1.6-3.5,3.5c0,1.9,1.6,3.5,3.5,3.5h228.6c3.7,0,6.8,3,6.8,6.8v210.9c0,3.7-3,6.8-6.8,6.8H50.5
		c-20,0-36.2-16.3-36.2-36.2v-3.3c1.6-7.2,5.6-12.9,12.1-16.8c9.8-5.9,21.4-6,30.4-0.2c6,3.8,9.9,9.7,11.7,17.3
		c0.4,1.6,1.8,2.7,3.4,2.7c0.1,0,0.3,0,0.4,0c1.8-0.2,3.1-1.7,3.1-3.5V45c0-18.8-15.3-34-34-34s-34,15.3-34,34v194.6v3.7
		c0,23.8,19.4,43.2,43.2,43.2h268.4c7.6,0,13.8-6.2,13.8-13.8V61.8C332.7,54.2,326.5,48,318.9,48z M14.3,45c0-14.9,12.1-27,27-27
		s27,12.1,27,27v179.1c-2.2-2.7-4.8-5-7.8-7c-11.3-7.2-25.7-7.2-37.8,0.1c-3.3,2-6.1,4.4-8.5,7.2V45z"/>
	<path d="M301.5,211.7V78.4c0-1.9-1.6-3.5-3.5-3.5H94.7c-1.9,0-3.5,1.6-3.5,3.5v174.1c0,1.9,1.6,3.5,3.5,3.5H180
		c1.9,0,3.5-1.6,3.5-3.5v-15.3c0-1.9-1.6-3.5-3.5-3.5h-66.5V195h60.9c1.9,0,3.5-1.6,3.5-3.5v-31.1v-0.8v-14.5c0-1.9-1.6-3.5-3.5-3.5
		h-60.9V97.2h101.2v11.9c0,1.9,1.6,3.5,3.5,3.5h15.3c1.9,0,3.5-1.6,3.5-3.5V97.2h42.1v44.3h-42.1v-11.9c0-1.9-1.6-3.5-3.5-3.5h-15.3
		c-1.9,0-3.5,1.6-3.5,3.5v30.7c0,1.9,1.6,3.5,3.5,3.5h60.9v29h-60.9c-1.9,0-3.5,1.6-3.5,3.5v56.2c0,1.9,1.6,3.5,3.5,3.5h15.3
		c1.9,0,3.5-1.6,3.5-3.5v-37.3H298C299.9,215.2,301.5,213.6,301.5,211.7z M149,163.9V188h-13.5v-24.1H149z M113.5,163.9h15V188h-15
		V163.9z M155.9,188v-24.1h15V188H155.9z M294.5,208.2h-60.9c-1.9,0-3.5,1.6-3.5,3.5V249h-8.4v-49.2h60.9c1.9,0,3.5-1.6,3.5-3.5
		v-35.9c0-1.9-1.6-3.5-3.5-3.5h-60.9v-23.7h8.4v11.9c0,1.9,1.6,3.5,3.5,3.5h49c1.9,0,3.5-1.6,3.5-3.5V93.8c0-1.9-1.6-3.5-3.5-3.5
		h-49c-1.9,0-3.5,1.6-3.5,3.5v11.9h-8.4V93.8c0-1.9-1.6-3.5-3.5-3.5H110c-1.9,0-3.5,1.6-3.5,3.5v51.3c0,1.9,1.6,3.5,3.5,3.5h60.9
		v7.5H110c-1.9,0-3.5,1.6-3.5,3.5v0.8v31.1v45.6c0,1.9,1.6,3.5,3.5,3.5h66.5v8.4H98.2V81.9h196.3V208.2z"/>
	<path d="M277.5,313.5l-8.8-6.3c-3.2-2.3-7-3.5-11-3.5H97c-7,0-12.7,5.7-12.7,12.7c0,7,5.7,12.7,12.7,12.7h160.7c4,0,7.8-1.2,11-3.5
		l8.8-6.3c0.9-0.7,1.5-1.7,1.5-2.8C278.9,315.2,278.4,314.2,277.5,313.5z M252.6,322.1H110.7v-11.4h141.9V322.1z M91.2,316.3
		c0-3.1,2.6-5.7,5.7-5.7h6.8v11.4H97C93.8,322.1,91.2,319.5,91.2,316.3z M264.6,319.8c-1.5,1.1-3.2,1.8-5.1,2.1v-11.1
		c1.8,0.3,3.5,1,5.1,2.1l4.9,3.5L264.6,319.8z"/>
	<circle cx="253.9" cy="233.8" r="3.5"/>
	<circle cx="272.7" cy="233.8" r="3.5"/>
	<circle cx="291.4" cy="233.8" r="3.5"/>
</g>
</svg>
