<?xml version="1.0" encoding="utf-8"?>
<!-- Generator: Adobe Illustrator 16.0.0, SVG Export Plug-In . SVG Version: 6.00 Build 0)  -->
<!DOCTYPE svg PUBLIC "-//W3C//DTD SVG 1.1//EN" "http://www.w3.org/Graphics/SVG/1.1/DTD/svg11.dtd">
<svg version="1.1" xmlns="http://www.w3.org/2000/svg" xmlns:xlink="http://www.w3.org/1999/xlink" x="0px" y="0px" width="64px"
	 height="64px" viewBox="0 0 64 64" enable-background="new 0 0 64 64" xml:space="preserve">
<g id="Guide_line">
</g>
<g id="Icon" style="fill:#27c2a0;fill-opacity:1">>
	<path d="M61.729,11.801l-9.025-5.675c-0.159-0.1-0.344-0.153-0.532-0.153H36.897V2.022c0-0.552-0.447-1-1-1h-7.795
		c-0.553,0-1,0.448-1,1v3.951H15.518c-0.553,0-1,0.448-1,1v11.351c0,0.552,0.447,1,1,1h11.585v4.018H11.829
		c-0.188,0-0.373,0.053-0.532,0.153L2.271,29.17c-0.291,0.183-0.468,0.503-0.468,0.847s0.177,0.664,0.468,0.847l9.025,5.676
		c0.159,0.1,0.344,0.153,0.532,0.153h15.273v25.285c0,0.552,0.447,1,1,1h7.795c0.553,0,1-0.448,1-1V36.693h11.585
		c0.553,0,1-0.448,1-1V24.341c0-0.552-0.447-1-1-1H36.897v-4.018h15.273c0.188,0,0.373-0.053,0.532-0.153l9.025-5.676
		c0.291-0.183,0.468-0.503,0.468-0.847S62.02,11.984,61.729,11.801z M29.103,3.022h5.795v2.951h-5.795V3.022z M34.897,60.978h-5.795
		V36.693h5.795V60.978z M47.482,34.693H12.117l-7.435-4.676l7.435-4.676h35.365V34.693z M34.897,23.341h-5.795v-4.018h5.795V23.341z
		 M51.883,17.324H16.518V7.973h35.365l7.435,4.675L51.883,17.324z"/>
</g>
</svg>
